<svg width="299" height="300" viewBox="0 0 299 300" fill="none" xmlns="http://www.w3.org/2000/svg">
<g filter="url(#filter0_d_2526_642)">
<ellipse cx="149.5" cy="146" rx="136.5" ry="137" fill="white"/>
</g>
<circle cx="149.5" cy="146.5" r="100.5" fill="#0089E8"/>
<path d="M151.107 227.77V223.95H145.977V221.527H151.107V217.489H145.322V215H154.163V230.259H145.322V227.77H151.107Z" fill="white"/>
<path d="M132.598 212.859L134.189 217.074L137.174 213.904L140.366 214.632L135.164 219.67L137.718 226.432L134.355 225.665L132.781 221.477L129.779 224.621L126.587 223.892L131.801 218.902L129.235 212.092L132.598 212.859Z" fill="white"/>
<path d="M118.159 218.771C117.565 219.099 116.881 219.278 116.107 219.309C115.314 219.347 114.517 219.173 113.717 218.788C112.786 218.34 112.057 217.706 111.531 216.888C110.992 216.062 110.711 215.119 110.688 214.059C110.647 213.005 110.894 211.921 111.431 210.806C111.968 209.692 112.667 208.809 113.53 208.158C114.373 207.515 115.288 207.14 116.276 207.034C117.251 206.922 118.204 207.09 119.135 207.538C119.935 207.923 120.564 208.428 121.022 209.053C121.467 209.671 121.76 210.321 121.901 211.002L125.149 204.256L127.903 205.582L120.155 221.671L117.402 220.345L118.159 218.771ZM114.243 212.161C113.928 212.816 113.794 213.446 113.842 214.051C113.871 214.662 114.048 215.2 114.374 215.664C114.686 216.121 115.098 216.473 115.61 216.72C116.108 216.959 116.643 217.056 117.215 217.008C117.768 216.967 118.299 216.771 118.808 216.418C119.304 216.059 119.709 215.552 120.025 214.897C120.341 214.241 120.484 213.607 120.456 212.996C120.414 212.378 120.24 211.834 119.934 211.363C119.608 210.9 119.196 210.548 118.697 210.308C118.186 210.062 117.651 209.965 117.092 210.019C116.52 210.067 115.986 210.27 115.49 210.629C114.981 210.981 114.566 211.492 114.243 212.161Z" fill="white"/>
<path d="M96.4126 212.095L106.484 199.466L108.874 201.371L98.802 214.001L96.4126 212.095Z" fill="white"/>
<path d="M96.6215 189.034C97.3474 189.944 97.8016 190.922 97.9841 191.968C98.1552 193.023 98.0388 194.056 97.635 195.066C97.222 196.066 96.532 196.951 95.5649 197.722C94.5977 198.494 93.5765 198.964 92.5012 199.132C91.4168 199.29 90.3806 199.158 89.3926 198.736C88.3932 198.323 87.5305 197.661 86.8046 196.751C86.0787 195.841 85.6257 194.852 85.4455 193.786C85.2539 192.729 85.3601 191.695 85.7639 190.684C86.1587 189.662 86.8396 188.765 87.8068 187.994C88.7739 187.223 89.8042 186.764 90.8977 186.618C91.9821 186.461 93.0285 186.594 94.037 187.018C95.025 187.44 95.8865 188.112 96.6215 189.034ZM94.5393 190.694C94.1945 190.262 93.77 189.94 93.2657 189.728C92.741 189.513 92.1775 189.46 91.575 189.568C90.9725 189.676 90.3698 189.971 89.7667 190.452C88.8679 191.169 88.37 191.956 88.2732 192.815C88.156 193.672 88.3696 194.442 88.914 195.124C89.4585 195.807 90.1613 196.187 91.0226 196.263C91.8634 196.337 92.7333 196.016 93.6321 195.299C94.531 194.582 95.0482 193.807 95.1835 192.973C95.2985 192.136 95.0837 191.377 94.5393 190.694Z" fill="white"/>
<path d="M79.0457 180.146C78.2983 180.07 77.6249 179.829 77.0256 179.423C76.42 179.004 75.9403 178.427 75.5867 177.693L78.4779 176.3L78.8284 177.028C79.2451 177.893 79.7641 178.451 80.3852 178.701C81.0001 178.938 81.8123 178.813 82.8219 178.327L88.2503 175.713L89.5763 178.467L78.6803 183.714L77.3542 180.96L79.0457 180.146Z" fill="white"/>
<path d="M76.146 157.446C76.5717 157.348 76.9612 157.289 77.3147 157.268L79.282 165.888C80.1171 165.622 80.716 165.172 81.0785 164.537C81.4411 163.902 81.535 163.202 81.3601 162.435C81.1075 161.329 80.4525 160.65 79.395 160.398L78.6615 157.185C79.8743 157.266 80.9597 157.705 81.9177 158.502C82.8615 159.301 83.4937 160.403 83.8143 161.808C84.0734 162.943 84.0582 164.021 83.7689 165.043C83.4621 166.053 82.9059 166.919 82.1003 167.64C81.2914 168.347 80.2839 168.839 79.0779 169.114C77.8577 169.392 76.7298 169.389 75.6943 169.102C74.6587 168.816 73.7906 168.283 73.09 167.503C72.3894 166.722 71.9063 165.75 71.6407 164.587C71.3849 163.466 71.3978 162.41 71.6794 161.421C71.9578 160.417 72.4889 159.571 73.2726 158.885C74.039 158.188 74.9968 157.708 76.146 157.446ZM75.9991 160.726C75.2361 160.915 74.6892 161.331 74.3582 161.974C74.0131 162.62 73.9295 163.333 74.1076 164.113C74.276 164.851 74.6455 165.423 75.2161 165.831C75.7693 166.227 76.4561 166.391 77.2766 166.323L75.9991 160.726Z" fill="white"/>
<path d="M70.7663 121.001L85.6214 124.391L84.9414 127.371L75.2791 125.166L84.033 131.351L83.5181 133.607L72.9426 135.403L82.6049 137.608L81.9248 140.587L67.0696 137.197L67.842 133.813L79.966 131.609L69.9988 124.363L70.7663 121.001Z" fill="white"/>
<path d="M89.1833 117.803C88.6782 118.852 87.9941 119.686 87.131 120.304C86.2549 120.916 85.2739 121.259 84.188 121.334C83.1084 121.396 82.0113 121.158 80.8968 120.621C79.7823 120.085 78.9157 119.368 78.297 118.473C77.6847 117.564 77.3543 116.573 77.3058 115.5C77.2442 114.42 77.466 113.356 77.9711 112.307C78.4763 111.258 79.1701 110.421 80.0526 109.796C80.9219 109.165 81.8996 108.812 82.9855 108.737C84.0777 108.649 85.1811 108.874 86.2956 109.411C87.4101 109.947 88.2704 110.677 88.8764 111.598C89.4887 112.507 89.8225 113.508 89.8778 114.6C89.9263 115.674 89.6948 116.741 89.1833 117.803ZM86.7838 116.648C87.0238 116.15 87.1299 115.627 87.1023 115.081C87.0679 114.515 86.8712 113.984 86.5124 113.489C86.1535 112.993 85.6266 112.577 84.9317 112.243C83.8958 111.744 82.97 111.637 82.154 111.923C81.3313 112.189 80.7306 112.715 80.3517 113.502C79.9728 114.289 79.9359 115.087 80.2408 115.896C80.5389 116.685 81.2059 117.33 82.2417 117.828C83.2776 118.327 84.2006 118.457 85.0106 118.217C85.8139 117.958 86.405 117.435 86.7838 116.648Z" fill="white"/>
<path d="M89.5656 98.1127C89.3099 97.4063 89.235 96.695 89.3407 95.9789C89.4555 95.2514 89.767 94.5691 90.2751 93.9319L92.784 95.9327L92.2804 96.5641C91.6815 97.3151 91.4042 98.0247 91.4484 98.6928C91.5017 99.3496 91.9664 100.027 92.8425 100.726L97.5531 104.483L95.6476 106.872L86.1923 99.3316L88.0978 96.9422L89.5656 98.1127Z" fill="white"/>
<path d="M108.759 85.6508C109.032 85.9921 109.254 86.3175 109.426 86.6268L102.514 92.1392C103.115 92.7765 103.781 93.1207 104.51 93.1718C105.24 93.223 105.912 93.0035 106.526 92.5135C107.414 91.8058 107.741 90.921 107.509 89.8593L110.086 87.8041C110.539 88.9321 110.614 90.1004 110.312 91.3091C110.001 92.5064 109.282 93.5542 108.156 94.4525C107.246 95.1784 106.268 95.6326 105.222 95.8151C104.179 95.9771 103.157 95.8517 102.158 95.4388C101.17 95.0168 100.29 94.3222 99.5187 93.355C98.7384 92.3765 98.2524 91.3587 98.0609 90.3015C97.8693 89.2444 97.9731 88.2308 98.3724 87.261C98.7716 86.2911 99.4377 85.4341 100.371 84.6901C101.27 83.9732 102.226 83.527 103.24 83.3512C104.265 83.1665 105.257 83.2782 106.216 83.6865C107.177 84.0744 108.024 84.7291 108.759 85.6508ZM105.74 86.9416C105.239 86.3363 104.627 86.024 103.904 86.0047C103.172 85.974 102.494 86.2082 101.868 86.7072C101.276 87.1791 100.921 87.7604 100.801 88.4511C100.684 89.1214 100.834 89.8115 101.252 90.5212L105.74 86.9416Z" fill="white"/>
<path d="M137.802 71.6384L138.375 74.1498L129.351 76.2094L128.778 73.6981L137.802 71.6384Z" fill="white"/>
<path d="M165.96 68.9032L165.11 72.6276L170.111 73.7691L169.572 76.1315L164.571 74.99L163.672 78.9272L169.312 80.2145L168.758 82.6407L160.139 80.6734L163.534 65.7969L172.154 67.7642L171.6 70.1904L165.96 68.9032Z" fill="white"/>
<path d="M180.686 87.5589L180.073 83.0963L176.457 85.5225L173.507 84.1018L179.7 80.3484L178.715 73.1868L181.822 74.6833L182.425 79.1168L186.051 76.7197L189.001 78.1404L182.808 81.8449L183.793 89.0554L180.686 87.5589Z" fill="white"/>
<path d="M196.079 85.0082C196.731 84.8209 197.438 84.7982 198.199 84.9402C198.982 85.0799 199.72 85.4265 200.414 85.98C201.222 86.6242 201.791 87.4041 202.122 88.3195C202.464 89.244 202.528 90.2258 202.314 91.2648C202.12 92.3015 201.638 93.3034 200.866 94.2706C200.095 95.2377 199.217 95.9425 198.231 96.385C197.266 96.8251 196.29 96.9869 195.303 96.8702C194.328 96.7626 193.436 96.3867 192.628 95.7424C191.934 95.1889 191.433 94.5567 191.125 93.8458C190.829 93.144 190.688 92.4453 190.703 91.7498L186.034 97.6038L183.645 95.6983L194.778 81.7374L197.168 83.6429L196.079 85.0082ZM198.426 92.3243C198.879 91.7554 199.15 91.1708 199.238 90.5707C199.346 89.9682 199.293 89.4046 199.078 88.8799C198.875 88.3643 198.552 87.9295 198.108 87.5757C197.676 87.2309 197.175 87.018 196.607 86.937C196.059 86.8538 195.498 86.9274 194.923 87.1578C194.36 87.3974 193.851 87.8016 193.398 88.3705C192.944 88.9394 192.663 89.5251 192.555 90.1275C192.458 90.7391 192.507 91.3083 192.701 91.8353C192.915 92.36 193.239 92.7948 193.671 93.1396C194.115 93.4935 194.615 93.7063 195.172 93.7782C195.74 93.8591 196.306 93.7799 196.87 93.5403C197.444 93.3099 197.963 92.9045 198.426 92.3243Z" fill="white"/>
<path d="M215.795 96.3557L203.165 106.428L201.259 104.038L213.889 93.9662L215.795 96.3557Z" fill="white"/>
<path d="M210.46 118.793C209.955 117.744 209.729 116.689 209.784 115.629C209.852 114.562 210.195 113.581 210.814 112.686C211.439 111.803 212.309 111.094 213.423 110.557C214.538 110.02 215.638 109.789 216.724 109.864C217.816 109.952 218.797 110.311 219.666 110.943C220.549 111.568 221.243 112.405 221.748 113.454C222.253 114.503 222.475 115.567 222.413 116.646C222.365 117.72 222.031 118.704 221.412 119.6C220.8 120.508 219.937 121.231 218.822 121.768C217.708 122.305 216.601 122.522 215.502 122.422C214.41 122.334 213.42 121.971 212.531 121.333C211.662 120.701 210.971 119.855 210.46 118.793ZM212.859 117.637C213.099 118.135 213.441 118.544 213.886 118.863C214.35 119.189 214.887 119.366 215.499 119.395C216.11 119.423 216.763 119.27 217.458 118.936C218.494 118.437 219.155 117.779 219.44 116.964C219.745 116.154 219.708 115.357 219.329 114.57C218.95 113.783 218.35 113.257 217.527 112.991C216.724 112.731 215.804 112.851 214.768 113.35C213.732 113.849 213.056 114.49 212.738 115.273C212.44 116.062 212.48 116.85 212.859 117.637Z" fill="white"/>
<path d="M225.617 131.369C226.329 131.609 226.931 131.994 227.425 132.523C227.923 133.067 228.262 133.736 228.443 134.53L225.315 135.244L225.135 134.457C224.921 133.52 224.539 132.861 223.989 132.479C223.443 132.111 222.623 132.052 221.531 132.301L215.657 133.642L214.977 130.663L226.767 127.971L227.447 130.951L225.617 131.369Z" fill="white"/>
<path d="M223.392 154.145C222.955 154.145 222.562 154.116 222.213 154.058V145.217C221.34 145.289 220.656 145.595 220.161 146.134C219.666 146.672 219.419 147.334 219.419 148.12C219.419 149.255 219.906 150.063 220.881 150.543V153.84C219.717 153.49 218.757 152.821 218 151.831C217.258 150.842 216.887 149.626 216.887 148.186C216.887 147.021 217.141 145.973 217.651 145.042C218.174 144.125 218.909 143.405 219.855 142.881C220.801 142.372 221.893 142.117 223.13 142.117C224.381 142.117 225.48 142.372 226.426 142.881C227.372 143.39 228.1 144.103 228.609 145.02C229.118 145.937 229.373 146.992 229.373 148.186C229.373 149.335 229.126 150.361 228.631 151.264C228.136 152.18 227.43 152.886 226.513 153.381C225.611 153.89 224.571 154.145 223.392 154.145ZM224.265 150.98C225.051 150.965 225.677 150.681 226.142 150.128C226.623 149.575 226.863 148.899 226.863 148.098C226.863 147.342 226.63 146.701 226.164 146.177C225.713 145.668 225.08 145.355 224.265 145.239V150.98Z" fill="white"/>
<path d="M220.527 190.873L206.799 184.262L208.125 181.508L217.054 185.809L209.896 177.831L210.9 175.746L221.61 176.348L212.681 172.048L214.007 169.295L227.735 175.906L226.229 179.033L213.918 178.484L222.023 187.766L220.527 190.873Z" fill="white"/>
<path d="M201.861 189.892C202.587 188.982 203.439 188.322 204.418 187.911C205.408 187.509 206.441 187.393 207.517 187.562C208.583 187.742 209.6 188.218 210.567 188.989C211.534 189.76 212.219 190.651 212.623 191.662C213.018 192.684 213.12 193.724 212.928 194.781C212.748 195.847 212.295 196.836 211.569 197.746C210.843 198.656 209.98 199.318 208.981 199.731C207.993 200.153 206.961 200.279 205.886 200.11C204.801 199.953 203.776 199.489 202.809 198.717C201.841 197.946 201.165 197.044 200.779 196.01C200.385 194.988 200.282 193.938 200.471 192.86C200.663 191.803 201.126 190.814 201.861 189.892ZM203.943 191.553C203.598 191.985 203.379 192.471 203.284 193.01C203.192 193.569 203.265 194.13 203.505 194.693C203.744 195.257 204.165 195.779 204.769 196.26C205.667 196.977 206.546 197.287 207.405 197.19C208.267 197.113 208.969 196.734 209.514 196.051C210.058 195.369 210.272 194.599 210.155 193.742C210.04 192.906 209.533 192.129 208.634 191.413C207.735 190.696 206.864 190.364 206.021 190.418C205.18 190.492 204.487 190.87 203.943 191.553Z" fill="white"/>
<path d="M197.106 209.004C197.198 209.75 197.113 210.46 196.851 211.135C196.577 211.818 196.122 212.414 195.484 212.922L193.484 210.414L194.115 209.91C194.866 209.311 195.294 208.681 195.4 208.02C195.494 207.368 195.192 206.604 194.493 205.727L190.737 201.017L193.126 199.111L200.666 208.567L198.277 210.472L197.106 209.004Z" fill="white"/>
<path d="M175.621 216.883C175.431 216.489 175.287 216.123 175.188 215.783L183.153 211.947C182.709 211.191 182.137 210.708 181.437 210.496C180.737 210.283 180.033 210.348 179.325 210.689C178.302 211.181 177.786 211.971 177.777 213.058L174.807 214.488C174.616 213.288 174.803 212.132 175.366 211.021C175.936 209.922 176.869 209.061 178.167 208.436C179.216 207.931 180.271 207.705 181.331 207.76C182.385 207.834 183.352 208.184 184.235 208.809C185.104 209.44 185.807 210.313 186.344 211.428C186.887 212.555 187.134 213.656 187.086 214.729C187.037 215.802 186.711 216.767 186.106 217.624C185.501 218.481 184.66 219.168 183.585 219.686C182.549 220.185 181.518 220.407 180.49 220.353C179.449 220.305 178.507 219.975 177.663 219.364C176.813 218.772 176.132 217.945 175.621 216.883ZM178.851 216.296C179.205 216.998 179.733 217.438 180.433 217.618C181.14 217.811 181.853 217.733 182.575 217.386C183.256 217.058 183.732 216.57 184.002 215.923C184.266 215.296 184.273 214.59 184.024 213.805L178.851 216.296Z" fill="white"/>
<path d="M175.522 142.605C179.29 144.781 179.29 150.219 175.522 152.395L143.728 170.751C139.96 172.926 135.25 170.207 135.25 165.856L135.25 129.144C135.25 124.793 139.96 122.074 143.728 124.249L175.522 142.605Z" fill="white"/>
<defs>
<filter id="filter0_d_2526_642" x="0.9" y="0.9" width="297.2" height="298.2" filterUnits="userSpaceOnUse" color-interpolation-filters="sRGB">
<feFlood flood-opacity="0" result="BackgroundImageFix"/>
<feColorMatrix in="SourceAlpha" type="matrix" values="0 0 0 0 0 0 0 0 0 0 0 0 0 0 0 0 0 0 127 0" result="hardAlpha"/>
<feOffset dy="4"/>
<feGaussianBlur stdDeviation="6.05"/>
<feComposite in2="hardAlpha" operator="out"/>
<feColorMatrix type="matrix" values="0 0 0 0 0 0 0 0 0 0 0 0 0 0 0 0 0 0 0.15 0"/>
<feBlend mode="normal" in2="BackgroundImageFix" result="effect1_dropShadow_2526_642"/>
<feBlend mode="normal" in="SourceGraphic" in2="effect1_dropShadow_2526_642" result="shape"/>
</filter>
</defs>
</svg>
